<svg width="58" height="58" viewBox="0 0 58 58" fill="none" xmlns="http://www.w3.org/2000/svg">
<path d="M19.5807 36.3859C18.21 35.6496 16.641 35.2305 14.9701 35.2305H14.9645C14.7945 35.2305 14.7152 35.0266 14.8398 34.9133C16.5775 33.3538 18.5625 32.0943 20.7135 31.1863C20.7361 31.175 20.7588 31.1693 20.7815 31.158C17.2641 28.6035 14.9758 24.4518 14.9758 19.7676C14.9758 12.0078 21.2516 5.7207 28.9943 5.7207C36.7371 5.7207 43.0072 12.0078 43.0072 19.7676C43.0072 24.4518 40.7189 28.6035 37.1959 31.158C37.2186 31.1693 37.2412 31.175 37.2639 31.1863C39.7957 32.2568 42.067 33.7918 44.0211 35.7516C45.9639 37.6909 47.5106 39.9898 48.575 42.5201C49.6222 44.9979 50.1874 47.6527 50.2402 50.3422C50.2417 50.4026 50.2311 50.4628 50.2091 50.5191C50.187 50.5754 50.1538 50.6267 50.1116 50.6699C50.0694 50.7132 50.0189 50.7476 49.9632 50.7711C49.9074 50.7946 49.8476 50.8067 49.7871 50.8066H46.3943C46.1508 50.8066 45.9469 50.6084 45.9412 50.3648C45.8279 45.9922 44.0777 41.8971 40.9795 38.7932C37.7793 35.5816 33.5199 33.8145 28.9887 33.8145C25.7772 33.8145 22.6959 34.7037 20.0395 36.3689C19.9712 36.4118 19.8929 36.436 19.8123 36.439C19.7318 36.4419 19.6519 36.4237 19.5807 36.3859ZM28.9887 29.5098C31.5828 29.5098 34.024 28.4959 35.8648 26.6551C36.7706 25.7517 37.4886 24.6781 37.9775 23.496C38.4665 22.3139 38.7168 21.0468 38.7139 19.7676C38.7139 17.1678 37.7 14.7209 35.8648 12.8801C34.0297 11.0393 31.5885 10.0254 28.9887 10.0254C26.3889 10.0254 23.9533 11.0393 22.1125 12.8801C21.2068 13.7834 20.4888 14.8571 19.9998 16.0392C19.5108 17.2212 19.2606 18.4884 19.2635 19.7676C19.2635 22.3674 20.2773 24.8143 22.1125 26.6551C23.9533 28.4959 26.3945 29.5098 28.9887 29.5098ZM8.15625 42.9902H12.9141V38.2324C12.9141 37.9832 13.118 37.7793 13.3672 37.7793H16.5391C16.7883 37.7793 16.9922 37.9832 16.9922 38.2324V42.9902L21.75 42.9902C21.9992 42.9902 22.2031 43.1941 22.2031 43.4434V46.6152C22.2031 46.8645 21.9992 47.0684 21.75 47.0684L16.9922 47.0684V51.8262C16.9922 52.0754 16.7883 52.2793 16.5391 52.2793H13.3672C13.118 52.2793 12.9141 52.0754 12.9141 51.8262V47.0684H8.15625C7.90704 47.0684 7.70313 46.8645 7.70313 46.6152V43.4434C7.70313 43.1941 7.90704 42.9902 8.15625 42.9902Z" fill="black"/>
</svg>
