<svg width="32" height="32" viewBox="0 0 32 32" fill="none" xmlns="http://www.w3.org/2000/svg">
<path d="M7.76537 4.8426L16 13.0773L24.192 4.88527C24.373 4.69267 24.591 4.53859 24.8329 4.43228C25.0749 4.32597 25.3358 4.26962 25.6 4.2666C26.1658 4.2666 26.7085 4.49136 27.1085 4.89144C27.5086 5.29152 27.7334 5.83414 27.7334 6.39994C27.7383 6.66149 27.6898 6.92129 27.5908 7.16342C27.4917 7.40554 27.3442 7.62486 27.1574 7.80794L18.8587 15.9999L27.1574 24.2986C27.509 24.6426 27.7152 25.1084 27.7334 25.5999C27.7334 26.1657 27.5086 26.7084 27.1085 27.1084C26.7085 27.5085 26.1658 27.7333 25.6 27.7333C25.3282 27.7445 25.0569 27.6992 24.8035 27.6C24.5501 27.5008 24.3201 27.3501 24.128 27.1573L16 18.9226L7.7867 27.1359C7.60645 27.3221 7.39111 27.4708 7.15311 27.5733C6.91511 27.6758 6.65916 27.7302 6.40004 27.7333C5.83424 27.7333 5.29162 27.5085 4.89154 27.1084C4.49147 26.7084 4.2667 26.1657 4.2667 25.5999C4.26173 25.3384 4.31026 25.0786 4.40931 24.8365C4.50836 24.5943 4.65584 24.375 4.8427 24.1919L13.1414 15.9999L4.8427 7.70127C4.4911 7.35729 4.28492 6.89148 4.2667 6.39994C4.2667 5.83414 4.49147 5.29152 4.89154 4.89144C5.29162 4.49136 5.83424 4.2666 6.40004 4.2666C6.91204 4.273 7.4027 4.47993 7.76537 4.8426Z" fill="#D44D4D"/>
</svg>
