<svg width="40" height="43" viewBox="0 0 40 43" fill="none" xmlns="http://www.w3.org/2000/svg">
<path d="M7.5 40V40.5H8H28.8333V42.1667H5.83333V37.3333V36.8333H5.33333H0.5V0.5H17.6887L25.9173 8.72855L34.1667 16.9779V18.1667H21.8333V8V7.5H21.3333H8H7.5V8V40ZM23.5 16V16.5H24H30.1042H31.3113L30.4577 15.6464L24.3536 9.54228L23.5 8.68873V9.89583V16ZM5.33333 35.1667H5.83333V34.6667V5.83333H19.4375H20.6446L19.7911 4.97978L17.1244 2.31311L16.9779 2.16667H16.7708H2.66667H2.16667V2.66667V34.6667V35.1667H2.66667H5.33333ZM34.1667 31.2292V42.1667H32.5V31.2292V30.0273L31.6475 30.8745L28.6053 33.8981L27.4363 32.7292L33.3333 26.8321L39.2304 32.7292L38.0614 33.8981L35.0191 30.8745L34.1667 30.0273V31.2292ZM39.5 21.8333V23.5H27.1667V21.8333H39.5Z" fill="black" stroke="black"/>
</svg>
