<svg width="305" height="260" viewBox="0 0 305 260" fill="none" xmlns="http://www.w3.org/2000/svg">
<path d="M25.8069 14.0926L32.2972 0.130024L19.6737 8.94628L5.71116 2.456L14.5274 15.0794L8.03714 29.042L20.6606 20.2258L34.6232 26.716L25.8069 14.0926Z" fill="#ADCAB2"/>
<path d="M64.3562 46.4393L70.8465 32.4768L58.2231 41.293L44.2605 34.8027L53.0767 47.4262L46.5865 61.3888L59.2099 52.5725L73.1725 59.0628L64.3562 46.4393Z" fill="#ADCAB2"/>
<path d="M109.396 64.8235L102.906 78.7861L111.722 91.4095L97.7592 84.9192L85.1358 93.7355L91.6261 79.7729L82.8098 67.1495L96.7724 73.6397L109.396 64.8235Z" fill="#ADCAB2"/>
<path d="M141.455 111.133L147.945 97.1702L135.322 105.986L121.359 99.4962L130.175 112.12L123.685 126.082L136.309 117.266L150.271 123.756L141.455 111.133Z" fill="#ADCAB2"/>
<path d="M186.495 129.517L180.004 143.48L188.82 156.103L174.858 149.613L162.234 158.429L168.725 144.466L159.908 131.843L173.871 138.333L186.495 129.517Z" fill="#ADCAB2"/>
<path d="M218.554 175.826L225.044 161.864L212.42 170.68L198.458 164.19L207.274 176.813L200.784 190.776L213.407 181.959L227.37 188.45L218.554 175.826Z" fill="#ADCAB2"/>
<path d="M263.593 194.21L257.103 208.173L265.919 220.796L251.957 214.306L239.333 223.122L245.823 209.16L237.007 196.536L250.97 203.027L263.593 194.21Z" fill="#ADCAB2"/>
<path d="M295.652 240.52L302.143 226.557L289.519 235.373L275.556 228.883L284.373 241.507L277.882 255.469L290.506 246.653L304.468 253.143L295.652 240.52Z" fill="#ADCAB2"/>
<path d="M-0.0495462 38.6794L-6.53982 52.6419L2.27643 65.2654L-11.6862 58.7751L-24.3096 67.5914L-17.8193 53.6288L-26.6356 41.0053L-12.673 47.4956L-0.0495462 38.6794Z" fill="#ADCAB2"/>
<path d="M32.0095 84.9887L38.4998 71.0261L25.8763 79.8423L11.9138 73.3521L20.73 85.9755L14.2397 99.9381L26.8632 91.1218L40.8258 97.6121L32.0095 84.9887Z" fill="#ADCAB2"/>
<path d="M77.0491 103.373L70.5588 117.335L79.3751 129.959L65.4125 123.469L52.7891 132.285L59.2794 118.322L50.4631 105.699L64.4257 112.189L77.0491 103.373Z" fill="#ADCAB2"/>
<path d="M109.108 149.682L115.598 135.72L102.975 144.536L89.0124 138.046L97.8287 150.669L91.3384 164.632L103.962 155.815L117.924 162.306L109.108 149.682Z" fill="#ADCAB2"/>
<path d="M154.148 168.066L147.658 182.029L156.474 194.652L142.511 188.162L129.888 196.978L136.378 183.016L127.562 170.392L141.524 176.883L154.148 168.066Z" fill="#ADCAB2"/>
<path d="M186.207 214.376L192.697 200.413L180.074 209.229L166.111 202.739L174.927 215.362L168.437 229.325L181.061 220.509L195.023 226.999L186.207 214.376Z" fill="#ADCAB2"/>
<path d="M231.246 232.76L224.756 246.722L233.572 259.346L219.61 252.855L206.986 261.672L213.477 247.709L204.66 235.086L218.623 241.576L231.246 232.76Z" fill="#ADCAB2"/>
<path d="M263.306 279.069L269.796 265.106L257.172 273.923L243.21 267.432L252.026 280.056L245.536 294.018L258.159 285.202L272.122 291.692L263.306 279.069Z" fill="#ADCAB2"/>
<path d="M-32.3963 77.2287L-38.8866 91.1913L-30.0703 103.815L-44.0329 97.3244L-56.6563 106.141L-50.166 92.1781L-58.9823 79.5547L-45.0197 86.045L-32.3963 77.2287Z" fill="#ADCAB2"/>
<path d="M-0.337227 123.538L6.15305 109.575L-6.47039 118.392L-20.433 111.901L-11.6167 124.525L-18.107 138.487L-5.48355 129.671L8.47903 136.161L-0.337227 123.538Z" fill="#ADCAB2"/>
<path d="M44.7024 141.922L38.2121 155.885L47.0284 168.508L33.0658 162.018L20.4423 170.834L26.9326 156.872L18.1164 144.248L32.0789 150.738L44.7024 141.922Z" fill="#ADCAB2"/>
<path d="M76.7614 188.231L83.2517 174.269L70.6283 183.085L56.6657 176.595L65.482 189.218L58.9917 203.181L71.6151 194.365L85.5777 200.855L76.7614 188.231Z" fill="#ADCAB2"/>
<path d="M121.801 206.616L115.311 220.578L124.127 233.202L110.164 226.711L97.541 235.528L104.031 221.565L95.215 208.942L109.178 215.432L121.801 206.616Z" fill="#ADCAB2"/>
<path d="M153.86 252.925L160.35 238.962L147.727 247.779L133.764 241.288L142.581 253.912L136.09 267.874L148.714 259.058L162.676 265.548L153.86 252.925Z" fill="#ADCAB2"/>
<path d="M198.9 271.309L192.409 285.272L201.226 297.895L187.263 291.405L174.64 300.221L181.13 286.258L172.314 273.635L186.276 280.125L198.9 271.309Z" fill="#ADCAB2"/>
<path d="M230.959 317.618L237.449 303.656L224.826 312.472L210.863 305.982L219.679 318.605L213.189 332.568L225.812 323.752L239.775 330.242L230.959 317.618Z" fill="#ADCAB2"/>
<path d="M-64.743 115.778L-71.2333 129.741L-62.417 142.364L-76.3796 135.874L-89.0031 144.69L-82.5128 130.727L-91.329 118.104L-77.3665 124.594L-64.743 115.778Z" fill="#ADCAB2"/>
<path d="M-32.684 162.087L-26.1937 148.125L-38.8171 156.941L-52.7797 150.451L-43.9634 163.074L-50.4537 177.037L-37.8303 168.221L-23.8677 174.711L-32.684 162.087Z" fill="#ADCAB2"/>
<path d="M12.3557 180.471L5.86537 194.434L14.6816 207.058L0.719043 200.567L-11.9044 209.383L-5.41411 195.421L-14.2304 182.797L-0.267783 189.288L12.3557 180.471Z" fill="#ADCAB2"/>
<path d="M44.4147 226.781L50.905 212.818L38.2815 221.634L24.319 215.144L33.1352 227.768L26.6449 241.73L39.2684 232.914L53.231 239.404L44.4147 226.781Z" fill="#ADCAB2"/>
<path d="M89.4543 245.165L82.964 259.128L91.7803 271.751L77.8177 265.261L65.1943 274.077L71.6846 260.114L62.8683 247.491L76.8309 253.981L89.4543 245.165Z" fill="#ADCAB2"/>
<path d="M121.513 291.474L128.004 277.512L115.38 286.328L101.418 279.838L110.234 292.461L103.744 306.424L116.367 297.607L130.33 304.098L121.513 291.474Z" fill="#ADCAB2"/>
<path d="M166.553 309.858L160.063 323.821L168.879 336.444L154.916 329.954L142.293 338.77L148.783 324.808L139.967 312.184L153.93 318.675L166.553 309.858Z" fill="#ADCAB2"/>
<path d="M198.612 356.168L205.102 342.205L192.479 351.021L178.516 344.531L187.333 357.155L180.842 371.117L193.466 362.301L207.428 368.791L198.612 356.168Z" fill="#ADCAB2"/>
<path d="M-97.0897 154.327L-103.58 168.29L-94.7638 180.913L-108.726 174.423L-121.35 183.239L-114.86 169.277L-123.676 156.653L-109.713 163.144L-97.0897 154.327Z" fill="#ADCAB2"/>
<path d="M-65.0307 200.637L-58.5404 186.674L-71.1639 195.49L-85.1264 189L-76.3102 201.624L-82.8005 215.586L-70.177 206.77L-56.2144 213.26L-65.0307 200.637Z" fill="#ADCAB2"/>
<path d="M-19.9911 219.021L-26.4814 232.983L-17.6651 245.607L-31.6277 239.117L-44.2511 247.933L-37.7608 233.97L-46.5771 221.347L-32.6145 227.837L-19.9911 219.021Z" fill="#ADCAB2"/>
<path d="M12.068 265.33L18.5583 251.368L5.93482 260.184L-8.02777 253.694L0.78849 266.317L-5.70179 280.28L6.92164 271.463L20.8842 277.954L12.068 265.33Z" fill="#ADCAB2"/>
<path d="M57.1076 283.714L50.6173 297.677L59.4336 310.3L45.471 303.81L32.8475 312.626L39.3378 298.664L30.5216 286.04L44.4841 292.531L57.1076 283.714Z" fill="#ADCAB2"/>
<path d="M89.1666 330.024L95.6569 316.061L83.0335 324.877L69.0709 318.387L77.8872 331.01L71.3969 344.973L84.0203 336.157L97.9829 342.647L89.1666 330.024Z" fill="#ADCAB2"/>
<path d="M134.206 348.408L127.716 362.37L136.532 374.994L122.57 368.503L109.946 377.32L116.436 363.357L107.62 350.734L121.583 357.224L134.206 348.408Z" fill="#ADCAB2"/>
<path d="M166.265 394.717L172.756 380.754L160.132 389.571L146.17 383.08L154.986 395.704L148.496 409.666L161.119 400.85L175.082 407.34L166.265 394.717Z" fill="#ADCAB2"/>
<path d="M-129.436 192.877L-135.927 206.839L-127.111 219.463L-141.073 212.972L-153.697 221.789L-147.206 207.826L-156.023 195.203L-142.06 201.693L-129.436 192.877Z" fill="#ADCAB2"/>
<path d="M-97.3774 239.186L-90.8871 225.223L-103.511 234.04L-117.473 227.549L-108.657 240.173L-115.147 254.135L-102.524 245.319L-88.5612 251.809L-97.3774 239.186Z" fill="#ADCAB2"/>
<path d="M-52.3378 257.57L-58.8281 271.533L-50.0118 284.156L-63.9744 277.666L-76.5979 286.482L-70.1076 272.52L-78.9238 259.896L-64.9612 266.386L-52.3378 257.57Z" fill="#ADCAB2"/>
<path d="M-20.2788 303.879L-13.7885 289.917L-26.4119 298.733L-40.3745 292.243L-31.5582 304.866L-38.0485 318.829L-25.4251 310.013L-11.4625 316.503L-20.2788 303.879Z" fill="#ADCAB2"/>
<path d="M24.7609 322.264L18.2706 336.226L27.0868 348.85L13.1242 342.359L0.500806 351.176L6.99109 337.213L-1.82517 324.59L12.1374 331.08L24.7609 322.264Z" fill="#ADCAB2"/>
<path d="M56.8199 368.573L63.3102 354.61L50.6867 363.427L36.7242 356.936L45.5404 369.56L39.0501 383.522L51.6736 374.706L65.6362 381.196L56.8199 368.573Z" fill="#ADCAB2"/>
<path d="M101.86 386.957L95.3692 400.92L104.185 413.543L90.2229 407.053L77.5995 415.869L84.0898 401.906L75.2735 389.283L89.2361 395.773L101.86 386.957Z" fill="#ADCAB2"/>
<path d="M133.919 433.266L140.409 419.304L127.785 428.12L113.823 421.63L122.639 434.253L116.149 448.216L128.772 439.4L142.735 445.89L133.919 433.266Z" fill="#ADCAB2"/>
</svg>
