<svg width="60" height="55" viewBox="0 0 60 55" fill="none" xmlns="http://www.w3.org/2000/svg">
<g clip-path="url(#clip0_19_353)">
<path d="M0 0H11.8125V11.8125H0V0ZM13.5 0H16.875V1.6875H15.1875V3.375H16.875V5.0625H13.5V0ZM23.625 0H25.3125V1.6875H23.625V0ZM30.375 0H42.1875V11.8125H30.375V0ZM1.6875 1.6875V10.125H10.125V1.6875H1.6875ZM27 1.6875H28.6875V13.5H30.375V15.1875H28.6875V16.875H27V18.5625H25.3125V16.875H23.625V21.9375H25.3125V20.25H27V21.9375H28.6875V23.625H27V25.3125H25.3125V23.625H23.625V25.3125H20.25V27H18.5625V28.6875H23.625V27H25.3125V30.375H20.25V32.0625H18.5625V30.375H15.1875V33.75H16.875V35.4375H18.5625V38.8125H16.875V40.5H15.1875V37.125H13.5V28.6875H16.875V25.3125H18.5625V23.625H21.9375V21.9375H15.1875V23.625H13.5V20.25H20.25V18.5625H21.9375V13.5H20.25V15.1875H18.5625V13.5H15.1875V11.8125H16.875V10.125H18.5625V11.8125H20.25V10.125H21.9375V11.8125H23.625V15.1875H27V13.5H25.3125V11.8125H27V1.6875ZM32.0625 1.6875V10.125H40.5V1.6875H32.0625ZM3.375 3.375H8.4375V8.4375H3.375V3.375ZM18.5625 3.375H20.25V5.0625H18.5625V3.375ZM21.9375 3.375H25.3125V5.0625H23.625V6.75H25.3125V11.8125H23.625V8.4375H21.9375V3.375ZM33.75 3.375H38.8125V8.4375H33.75V3.375ZM16.875 5.0625H18.5625V6.75H20.25V8.4375H16.875V5.0625ZM13.5 6.75H15.1875V8.4375H13.5V6.75ZM13.5 10.125H15.1875V11.8125H13.5V10.125ZM0 13.5H1.6875V15.1875H0V13.5ZM5.0625 13.5H15.1875V15.1875H13.5V16.875H11.8125V15.1875H8.4375V18.5625H6.75V15.1875H5.0625V13.5ZM33.75 13.5H35.4375V15.1875H37.125V13.5H42.1875V15.1875H40.5V16.875H37.125V18.5625H40.5V16.875H42.1875V21.9375H40.5V20.25H35.4375V16.875H33.75V18.5625H28.6875V16.875H32.0625V15.1875H33.75V13.5ZM1.6875 15.1875H5.0625V16.875H1.6875V15.1875ZM15.1875 15.1875H18.5625V16.875H16.875V18.5625H13.5V16.875H15.1875V15.1875ZM0 16.875H1.6875V20.25H0V16.875ZM10.125 16.875H11.8125V18.5625H10.125V16.875ZM18.5625 16.875H20.25V18.5625H18.5625V16.875ZM11.8125 18.5625H13.5V20.25H11.8125V18.5625ZM3.375 20.25H8.4375V21.9375H3.375V20.25ZM10.125 20.25H11.8125V21.9375H10.125V20.25ZM30.375 20.25H32.0625V21.9375H30.375V20.25ZM0 21.9375H3.375V25.3125H1.6875V28.6875H0V21.9375ZM8.4375 21.9375H10.125V23.625H11.8125V25.3125H10.125V27H11.8125V25.3125H13.5V28.6875H5.0625V27H3.375V25.3125H5.0625V23.625H6.75V25.3125H8.4375V21.9375ZM33.75 21.9375H35.4375V23.625H38.8125V21.9375H40.5V23.625H42.1875V27H40.5V25.3125H38.8125V27H40.5V30.375H37.125V27H35.4375V25.3125H33.75V21.9375ZM30.375 23.625H32.0625V25.3125H33.75V27H35.4375V35.4375H32.0625V37.125H30.375V38.8125H28.6875V37.125H27V35.4375H25.3125V42.1875H21.9375V40.5H23.625V35.4375H20.25V32.0625H21.9375V33.75H23.625V32.0625H27V25.3125H30.375V23.625ZM28.6875 28.6875V33.75H33.75V28.6875H28.6875ZM0 30.375H11.8125V42.1875H0V30.375ZM30.375 30.375H32.0625V32.0625H30.375V30.375ZM40.5 30.375H42.1875V32.0625H40.5V30.375ZM1.6875 32.0625V40.5H10.125V32.0625H1.6875ZM38.8125 32.0625H40.5V33.75H38.8125V32.0625ZM3.375 33.75H8.4375V38.8125H3.375V33.75ZM40.5 33.75H42.1875V42.1875H40.5V40.5H37.125V38.8125H35.4375V40.5H32.0625V38.8125H33.75V37.125H38.8125V35.4375H40.5V33.75ZM20.25 37.125H21.9375V38.8125H20.25V37.125ZM13.5 40.5H15.1875V42.1875H13.5V40.5ZM16.875 40.5H18.5625V42.1875H16.875V40.5ZM27 40.5H30.375V42.1875H27V40.5ZM35.4375 40.5H37.125V42.1875H35.4375V40.5Z" fill="black"/>
</g>
<g clip-path="url(#clip1_19_353)">
<rect x="17.8125" y="12.1875" width="42.1875" height="42.1875" rx="5" fill="white"/>
<path d="M17.8125 12.1875H29.625V24H17.8125V12.1875ZM31.3125 12.1875H34.6875V13.875H33V15.5625H34.6875V17.25H31.3125V12.1875ZM41.4375 12.1875H43.125V13.875H41.4375V12.1875ZM48.1875 12.1875H60V24H48.1875V12.1875ZM19.5 13.875V22.3125H27.9375V13.875H19.5ZM44.8125 13.875H46.5V25.6875H48.1875V27.375H46.5V29.0625H44.8125V30.75H43.125V29.0625H41.4375V34.125H43.125V32.4375H44.8125V34.125H46.5V35.8125H44.8125V37.5H43.125V35.8125H41.4375V37.5H38.0625V39.1875H36.375V40.875H41.4375V39.1875H43.125V42.5625H38.0625V44.25H36.375V42.5625H33V45.9375H34.6875V47.625H36.375V51H34.6875V52.6875H33V49.3125H31.3125V40.875H34.6875V37.5H36.375V35.8125H39.75V34.125H33V35.8125H31.3125V32.4375H38.0625V30.75H39.75V25.6875H38.0625V27.375H36.375V25.6875H33V24H34.6875V22.3125H36.375V24H38.0625V22.3125H39.75V24H41.4375V27.375H44.8125V25.6875H43.125V24H44.8125V13.875ZM49.875 13.875V22.3125H58.3125V13.875H49.875ZM21.1875 15.5625H26.25V20.625H21.1875V15.5625ZM36.375 15.5625H38.0625V17.25H36.375V15.5625ZM39.75 15.5625H43.125V17.25H41.4375V18.9375H43.125V24H41.4375V20.625H39.75V15.5625ZM51.5625 15.5625H56.625V20.625H51.5625V15.5625ZM34.6875 17.25H36.375V18.9375H38.0625V20.625H34.6875V17.25ZM31.3125 18.9375H33V20.625H31.3125V18.9375ZM31.3125 22.3125H33V24H31.3125V22.3125ZM17.8125 25.6875H19.5V27.375H17.8125V25.6875ZM22.875 25.6875H33V27.375H31.3125V29.0625H29.625V27.375H26.25V30.75H24.5625V27.375H22.875V25.6875ZM51.5625 25.6875H53.25V27.375H54.9375V25.6875H60V27.375H58.3125V29.0625H54.9375V30.75H58.3125V29.0625H60V34.125H58.3125V32.4375H53.25V29.0625H51.5625V30.75H46.5V29.0625H49.875V27.375H51.5625V25.6875ZM19.5 27.375H22.875V29.0625H19.5V27.375ZM33 27.375H36.375V29.0625H34.6875V30.75H31.3125V29.0625H33V27.375ZM17.8125 29.0625H19.5V32.4375H17.8125V29.0625ZM27.9375 29.0625H29.625V30.75H27.9375V29.0625ZM36.375 29.0625H38.0625V30.75H36.375V29.0625ZM29.625 30.75H31.3125V32.4375H29.625V30.75ZM21.1875 32.4375H26.25V34.125H21.1875V32.4375ZM27.9375 32.4375H29.625V34.125H27.9375V32.4375ZM48.1875 32.4375H49.875V34.125H48.1875V32.4375ZM17.8125 34.125H21.1875V37.5H19.5V40.875H17.8125V34.125ZM26.25 34.125H27.9375V35.8125H29.625V37.5H27.9375V39.1875H29.625V37.5H31.3125V40.875H22.875V39.1875H21.1875V37.5H22.875V35.8125H24.5625V37.5H26.25V34.125ZM51.5625 34.125H53.25V35.8125H56.625V34.125H58.3125V35.8125H60V39.1875H58.3125V37.5H56.625V39.1875H58.3125V42.5625H54.9375V39.1875H53.25V37.5H51.5625V34.125ZM48.1875 35.8125H49.875V37.5H51.5625V39.1875H53.25V47.625H49.875V49.3125H48.1875V51H46.5V49.3125H44.8125V47.625H43.125V54.375H39.75V52.6875H41.4375V47.625H38.0625V44.25H39.75V45.9375H41.4375V44.25H44.8125V37.5H48.1875V35.8125ZM46.5 40.875V45.9375H51.5625V40.875H46.5ZM17.8125 42.5625H29.625V54.375H17.8125V42.5625ZM48.1875 42.5625H49.875V44.25H48.1875V42.5625ZM58.3125 42.5625H60V44.25H58.3125V42.5625ZM19.5 44.25V52.6875H27.9375V44.25H19.5ZM56.625 44.25H58.3125V45.9375H56.625V44.25ZM21.1875 45.9375H26.25V51H21.1875V45.9375ZM58.3125 45.9375H60V54.375H58.3125V52.6875H54.9375V51H53.25V52.6875H49.875V51H51.5625V49.3125H56.625V47.625H58.3125V45.9375ZM38.0625 49.3125H39.75V51H38.0625V49.3125ZM31.3125 52.6875H33V54.375H31.3125V52.6875ZM34.6875 52.6875H36.375V54.375H34.6875V52.6875ZM44.8125 52.6875H48.1875V54.375H44.8125V52.6875ZM53.25 52.6875H54.9375V54.375H53.25V52.6875Z" fill="#CB416B"/>
</g>
<defs>
<clipPath id="clip0_19_353">
<rect width="42.1875" height="42.1875" rx="5" fill="white"/>
</clipPath>
<clipPath id="clip1_19_353">
<rect x="17.8125" y="12.1875" width="42.1875" height="42.1875" rx="5" fill="white"/>
</clipPath>
</defs>
</svg>
