<svg width="403" height="359" viewBox="0 0 403 359" fill="none" xmlns="http://www.w3.org/2000/svg">
<path d="M0 91.1434L74.8539 9.34327L156.654 84.1972L81.8002 165.997L0 91.1434ZM85.5473 -2.34246L106.934 -25.7139L118.62 -15.0205L107.926 -3.3348L119.612 7.35862L130.306 -4.32711L141.991 6.3663L120.605 29.7378L85.5473 -2.34246ZM149.708 -72.4569L160.401 -84.1426L172.087 -73.4492L161.394 -61.7635L149.708 -72.4569ZM192.481 -119.2L267.335 -201L349.136 -126.146L274.282 -44.3459L192.481 -119.2ZM22.3792 90.1511L80.8078 143.618L134.275 85.1895L75.8462 31.7224L22.3792 90.1511ZM182.78 -85.1349L193.474 -96.8207L275.274 -21.9668L285.967 -33.6525L297.653 -22.9591L286.96 -11.2733L298.645 -0.579936L287.952 11.1058L299.638 21.7992L288.944 33.4849L277.259 22.7915L266.565 34.4773L301.622 66.5575L312.316 54.8718L300.63 44.1784L311.323 32.4926L323.009 43.186L333.703 31.5003L345.388 42.1937L334.695 53.8795L346.381 64.5729L335.687 76.2586L324.002 65.5652L313.308 77.2509L324.994 87.9443L303.607 111.316L315.293 122.009L304.599 133.695L316.285 144.388L348.365 109.331L336.68 98.6378L347.373 86.952L370.745 108.339L338.664 143.396L350.35 154.089L339.657 165.775L327.971 155.082L306.584 178.453L329.956 199.84L340.649 188.154L352.335 198.848L363.028 187.162L386.4 208.549L375.706 220.235L387.392 230.928L376.698 242.614L353.327 221.227L342.634 232.913L284.205 179.446L305.592 156.074L282.22 134.687L292.914 123.002L281.228 112.308L302.615 88.9367L290.929 78.2433L248.155 124.986L259.841 135.68L249.148 147.365L225.776 125.979L268.55 79.2356L256.864 68.5422L267.558 56.8564L232.5 24.7762L221.807 36.4619L233.493 47.1553L222.799 58.8411L211.113 48.1476L189.727 71.5191L178.041 60.8257L188.734 49.14L177.049 38.4465L187.742 26.7608L199.428 37.4542L210.121 25.7685L198.435 15.0751L209.129 3.38933L220.815 14.0828L231.508 2.39702L254.879 23.7839L276.266 0.412385L264.581 -10.281L253.887 1.4047L242.201 -9.28872L252.895 -20.9745L182.78 -85.1349ZM214.861 -120.192L273.289 -66.7251L326.756 -125.154L268.328 -178.621L214.861 -120.192ZM44.7583 89.1588L76.8386 54.1016L111.896 86.1818L79.8155 121.239L44.7583 89.1588ZM140.999 -16.0128L151.692 -27.6986L163.378 -17.0052L152.685 -5.31943L140.999 -16.0128ZM162.386 -39.3843L183.773 -62.7558L195.458 -52.0624L184.765 -40.3766L196.451 -29.6832L207.144 -41.369L242.201 -9.28872L231.508 2.39702L208.137 -18.9898L197.443 -7.30408L162.386 -39.3843ZM237.24 -121.184L269.32 -156.242L304.377 -124.161L272.297 -89.1042L237.24 -121.184ZM141.991 6.3663L152.685 -5.31943L164.371 5.37398L175.064 -6.31175L186.75 4.38167L165.363 27.7531L141.991 6.3663ZM132.29 40.4312L142.984 28.7455L154.669 39.4389L143.976 51.1246L132.29 40.4312ZM155.662 61.818L166.355 50.1323L178.041 60.8257L167.347 72.5114L155.662 61.818ZM93.4859 176.691L104.179 165.005L115.865 175.698L105.172 187.384L93.4859 176.691ZM125.566 141.634L189.727 71.5191L201.412 82.2125L190.719 93.8983L202.405 104.592L191.711 116.277L180.026 105.584L158.639 128.955L182.01 150.342L171.317 162.028L147.945 140.641L137.252 152.327L125.566 141.634ZM307.354 -57.024L318.048 -68.7097L329.733 -58.0163L340.427 -69.702L328.741 -80.3955L360.821 -115.453L372.507 -104.759L361.814 -93.0735L373.499 -82.3801L352.113 -59.0086L363.798 -48.3152L385.185 -71.6867L373.499 -82.3801L384.193 -94.0659L419.25 -61.9856L408.557 -50.2999L396.871 -60.9933L364.791 -25.9361L341.419 -47.3229L330.726 -35.6372L342.411 -24.9437L310.331 10.1135L298.645 -0.579936L320.032 -23.9514L308.347 -34.6448L319.04 -46.3306L307.354 -57.024ZM115.865 175.698L137.252 152.327L148.938 163.02L127.551 186.392L115.865 175.698ZM201.412 82.2125L222.799 58.8411L234.485 69.5345L223.792 81.2202L235.477 91.9136L214.09 115.285L202.405 104.592L213.098 92.906L201.412 82.2125ZM116.857 198.078L127.551 186.392L150.922 207.779L140.229 219.464L116.857 198.078ZM181.018 127.963L191.711 116.277L203.397 126.971L192.704 138.657L181.018 127.963ZM234.485 69.5345L245.178 57.8487L256.864 68.5422L246.171 80.2279L234.485 69.5345ZM203.397 126.971L214.09 115.285L225.776 125.979L215.083 137.664L203.397 126.971ZM161.616 196.093L193.696 161.036L205.382 171.729L173.301 206.786L161.616 196.093ZM204.389 149.35L215.083 137.664L226.769 148.358L216.075 160.043L204.389 149.35ZM332.71 9.12113L343.404 -2.5646L355.09 8.12882L344.396 19.8146L332.71 9.12113ZM151.915 230.158L173.301 206.786L196.673 228.173L185.979 239.859L209.351 261.246L198.658 272.931L151.915 230.158ZM205.382 171.729L216.075 160.043L227.761 170.737L238.454 159.051L250.14 169.745L239.447 181.43L251.132 192.124L261.826 180.438L250.14 169.745L260.833 158.059L284.205 179.446L230.738 237.874L219.052 227.181L208.359 238.867L196.673 228.173L207.366 216.487L195.681 205.794L206.374 194.108L218.06 204.802L228.753 193.116L205.382 171.729ZM365.783 -3.55691L376.476 -15.2426L388.162 -4.54923L409.549 -27.9207L397.863 -38.6141L408.557 -50.2999L420.242 -39.6064L430.936 -51.2922L454.307 -29.9054L443.614 -18.2196L431.928 -28.913L421.235 -17.2273L432.92 -6.53388L443.614 -18.2196L466.985 3.16724L445.598 26.5387L422.227 5.15186L411.534 16.8376L399.848 6.14418L389.154 17.8299L365.783 -3.55691ZM356.082 30.508L366.775 18.8222L378.461 29.5156L389.154 17.8299L400.84 28.5233L411.534 16.8376L469.962 70.3047L448.575 93.6761L460.261 104.37L449.568 116.055L461.253 126.749L450.56 138.434L438.874 127.741L428.181 139.427L416.495 128.733L405.802 140.419L452.545 183.193L431.158 206.564L419.472 195.871L430.166 184.185L395.108 152.105L373.721 175.476L350.35 154.089L361.043 142.404L372.729 153.097L383.423 141.411L371.737 130.718L393.124 107.347L346.381 64.5729L367.768 41.2014L356.082 30.508ZM380.446 74.274L415.503 106.354L447.583 71.297L412.526 39.2167L380.446 74.274ZM210.343 283.625L285.197 201.825L366.997 276.679L292.143 358.479L210.343 283.625ZM402.825 73.2816L413.518 61.5959L425.204 72.2893L414.511 83.9751L402.825 73.2816ZM466.985 3.16724L477.679 -8.51852L489.364 2.17489L478.671 13.8606L466.985 3.16724ZM232.722 282.633L291.151 336.1L344.618 277.671L286.19 224.204L232.722 282.633ZM467.978 25.5464L478.671 13.8606L490.357 24.5541L479.663 36.2398L467.978 25.5464ZM255.102 281.64L287.182 246.583L322.239 278.663L290.159 313.721L255.102 281.64ZM490.357 24.5541L501.05 12.8683L559.479 66.3354L548.785 78.0211L537.1 67.3277L515.713 90.6992L504.027 80.0058L493.334 91.6915L505.019 102.385L483.633 125.756L471.947 115.063L482.64 103.377L470.955 92.6838L503.035 57.6266L491.349 46.9332L502.042 35.2475L490.357 24.5541ZM385.407 186.17L396.101 174.484L407.786 185.177L397.093 196.863L385.407 186.17ZM366.005 254.3L376.698 242.614L388.384 253.307L377.691 264.993L366.005 254.3ZM387.392 230.928L398.085 219.242L409.771 229.936L399.078 241.621L387.392 230.928ZM451.552 160.814L472.939 137.442L484.625 148.136L463.238 171.507L451.552 160.814ZM505.019 102.385L515.713 90.6992L527.399 101.393L516.705 113.078L505.019 102.385Z" fill="white"/>
</svg>
