<svg width="45" height="45" viewBox="0 0 45 45" fill="none" xmlns="http://www.w3.org/2000/svg">
<path d="M35.625 13.125H16.875C14.8125 13.125 13.125 14.8125 13.125 16.875V35.625C13.125 37.6875 14.8125 39.375 16.875 39.375H35.625C37.6875 39.375 39.375 37.6875 39.375 35.625V16.875C39.375 14.8125 37.6875 13.125 35.625 13.125ZM35.625 16.875V20.625H16.875V16.875H35.625ZM24.375 28.125V24.375H28.125V28.125H24.375ZM28.125 31.875V35.625H24.375V31.875H28.125ZM20.625 28.125H16.875V24.375H20.625V28.125ZM31.875 24.375H35.625V28.125H31.875V24.375ZM16.875 31.875H20.625V35.625H16.875V31.875ZM31.875 35.625V31.875H35.625V35.625H31.875ZM11.25 31.875H9.375C7.3125 31.875 5.625 30.1875 5.625 28.125V9.375C5.625 7.3125 7.3125 5.625 9.375 5.625H28.125C30.1875 5.625 31.875 7.3125 31.875 9.375V11.25H28.125V9.375H9.375V28.125H11.25V31.875Z" fill="black"/>
</svg>
